<svg width="171" height="215" viewBox="0 0 171 215" fill="none" xmlns="http://www.w3.org/2000/svg">
<path d="M85.01 107.64C85.5513 107.64 85.99 107.201 85.99 106.66C85.99 106.119 85.5513 105.68 85.01 105.68C84.4688 105.68 84.03 106.119 84.03 106.66C84.03 107.201 84.4688 107.64 85.01 107.64Z" fill="#4A5059"/>
<path d="M56.54 33.86V38.16" stroke="#4A5059" stroke-linecap="round" stroke-linejoin="round"/>
<path d="M54.39 36.01H58.7" stroke="#4A5059" stroke-linecap="round" stroke-linejoin="round"/>
<path d="M105.5 61C97.12 61 88.61 60.66 80.64 58.44C72.67 56.22 65.64 52.06 59.24 47.19C55.04 44.02 51.24 41.49 45.79 41.87C40.4708 42.1566 35.3843 44.1443 31.28 47.54C24.35 53.6 25.4 64.81 28.16 72.69C32.33 84.54 45 92.79 55.75 98.16C68.18 104.37 81.83 107.98 95.53 110.05C107.53 111.88 122.94 113.2 133.34 105.36C142.9 98.16 145.52 81.72 143.18 70.62C142.609 67.3398 140.859 64.381 138.26 62.3C131.55 57.39 121.54 60.67 114 60.83C111.2 60.89 108.36 61 105.5 61Z" fill="#272933"/>
<path d="M91.95 28C92.4912 28 92.93 27.5612 92.93 27.02C92.93 26.4787 92.4912 26.04 91.95 26.04C91.4087 26.04 90.97 26.4787 90.97 27.02C90.97 27.5612 91.4087 28 91.95 28Z" fill="#4A5059"/>
<path d="M41.04 104.31V108.61" stroke="#4A5059" stroke-linecap="round" stroke-linejoin="round"/>
<path d="M38.88 106.46H43.19" stroke="#4A5059" stroke-linecap="round" stroke-linejoin="round"/>
<path d="M85.42 129.51C105.694 129.51 122.13 128.485 122.13 127.22C122.13 125.955 105.694 124.93 85.42 124.93C65.1456 124.93 48.71 125.955 48.71 127.22C48.71 128.485 65.1456 129.51 85.42 129.51Z" fill="#272933"/>
<path d="M114.92 102.69H51.52C51.0956 102.69 50.6764 102.597 50.2913 102.419C49.9062 102.241 49.5644 101.981 49.2896 101.658C49.0147 101.334 48.8134 100.955 48.6995 100.546C48.5856 100.137 48.5619 99.7088 48.63 99.29L56.73 50.11C56.8436 49.4255 57.1965 48.8037 57.7257 48.355C58.2549 47.9064 58.9262 47.6601 59.62 47.66H123C123.424 47.6603 123.844 47.7527 124.229 47.931C124.614 48.1092 124.956 48.369 125.23 48.6924C125.505 49.0157 125.707 49.3949 125.82 49.8037C125.934 50.2125 125.958 50.6411 125.89 51.06L117.79 100.24C117.679 100.922 117.329 101.542 116.804 101.991C116.278 102.439 115.611 102.687 114.92 102.69Z" fill="#2D333E" stroke="#4A5059" stroke-miterlimit="10"/>
<path d="M115.694 46.371L78.0548 29.5659C76.9453 29.0706 75.6443 29.5684 75.149 30.6779L63.2199 57.3957C62.7245 58.5052 63.2224 59.8062 64.3318 60.3015L101.971 77.1066C103.08 77.602 104.381 77.1042 104.876 75.9947L116.805 49.2768C117.301 48.1674 116.803 46.8664 115.694 46.371Z" fill="#2D333E" stroke="#4A5059" stroke-miterlimit="10"/>
<path d="M83.58 51.55C84.5829 50.19 86.0205 49.2136 87.6545 48.7827C89.2885 48.3518 91.0206 48.4924 92.5638 49.1811C94.1069 49.8698 95.3683 51.0652 96.1388 52.5692C96.9092 54.0731 97.1425 55.7953 96.8 57.45" stroke="#4A5059" stroke-width="0.68" stroke-linecap="round" stroke-linejoin="round"/>
<path d="M101.59 50.04C102.159 50.04 102.62 49.5788 102.62 49.01C102.62 48.4411 102.159 47.98 101.59 47.98C101.021 47.98 100.56 48.4411 100.56 49.01C100.56 49.5788 101.021 50.04 101.59 50.04Z" fill="#4A5059"/>
<path d="M86.67 43.38C87.2389 43.38 87.7 42.9189 87.7 42.35C87.7 41.7812 87.2389 41.32 86.67 41.32C86.1012 41.32 85.64 41.7812 85.64 42.35C85.64 42.9189 86.1012 43.38 86.67 43.38Z" fill="#4A5059"/>
<path d="M114.64 102.67H50.93C50.5449 102.671 50.1633 102.596 49.8072 102.45C49.4511 102.303 49.1276 102.087 48.8552 101.815C48.5829 101.542 48.3671 101.219 48.2204 100.863C48.0736 100.507 47.9987 100.125 48 99.74V54.74C47.9987 54.3557 48.0733 53.9749 48.2194 53.6195C48.3656 53.2641 48.5804 52.941 48.8517 52.6688C49.123 52.3966 49.4453 52.1806 49.8003 52.0332C50.1552 51.8859 50.5357 51.81 50.92 51.81H74.12C74.6603 51.8101 75.19 51.9596 75.6506 52.242C76.1112 52.5244 76.4848 52.9286 76.73 53.41L80.04 59.89C80.2836 60.3706 80.6554 60.7745 81.1143 61.0568C81.5732 61.3392 82.1012 61.4891 82.64 61.49H114.64C115.415 61.49 116.159 61.7973 116.708 62.3446C117.258 62.892 117.567 63.6346 117.57 64.41V99.74C117.57 100.125 117.494 100.506 117.347 100.861C117.2 101.217 116.984 101.54 116.712 101.812C116.44 102.084 116.117 102.3 115.761 102.447C115.406 102.594 115.025 102.67 114.64 102.67Z" fill="#2D333E" stroke="#4A5059" stroke-miterlimit="10"/>
<path d="M104.86 63C101.179 63 97.5812 64.0915 94.5208 66.1364C91.4604 68.1812 89.0752 71.0877 87.6666 74.4883C86.2581 77.8888 85.8895 81.6306 86.6076 85.2406C87.3257 88.8506 89.0981 92.1666 91.7007 94.7693C94.3034 97.3719 97.6194 99.1443 101.229 99.8624C104.839 100.58 108.581 100.212 111.982 98.8034C115.382 97.3949 118.289 95.0096 120.334 91.9492C122.379 88.8888 123.47 85.2907 123.47 81.61C123.471 79.1657 122.991 76.7452 122.056 74.4867C121.121 72.2282 119.751 70.1762 118.022 68.4478C116.294 66.7195 114.242 65.3487 111.983 64.4139C109.725 63.4792 107.304 62.9987 104.86 63Z" fill="#2D333E" stroke="#4A5059" stroke-miterlimit="10"/>
<path d="M118.08 95.13L123.04 100.09" stroke="#4A5059" stroke-width="0.68" stroke-linecap="round" stroke-linejoin="round"/>
<path d="M122.475 97.6917L120.934 99.3036C120.243 100.026 120.269 101.172 120.991 101.863L134.364 114.646C135.087 115.337 136.232 115.311 136.923 114.589L138.464 112.977C139.155 112.254 139.129 111.108 138.406 110.418L125.034 97.6341C124.311 96.9433 123.165 96.9691 122.475 97.6917Z" fill="#4A5059"/>
<path d="M132.37 27.02V31.33" stroke="#4A5059" stroke-linecap="round" stroke-linejoin="round"/>
<path d="M130.22 29.18H134.53" stroke="#4A5059" stroke-linecap="round" stroke-linejoin="round"/>
</svg>
